<svg xmlns="http://www.w3.org/2000/svg" width="180" height="180" fill="none"><path fill="#F5C518" d="M86.886.232c-2.565.652-4.523 1.65-7.05 3.585-2.655 2.047-4.83 4.365-7.785 8.325-5.61 7.575-11.063 17.527-17.49 31.987-.788 1.77-1.485 3.225-1.538 3.225a75.013 75.013 0 0 1-1.582-4.913c-3.315-11.025-5.775-18.194-8.213-23.97-3.825-9.097-7.282-13.687-11.475-15.247a9.375 9.375 0 0 0-5.962.053c-4.238 1.725-7.388 6.285-9.885 14.355-3.915 12.57-7.2 33.974-11.04 72C1.28 124.805-.197 146.075.02 159.057c.09 6.262.337 8.857 1.125 12.15 1.402 5.94 4.665 9.045 9.187 8.722 1.193-.097 1.62-.225 2.94-1.005 1.298-.765 1.853-1.275 3.255-2.932 3.78-4.515 7.32-12.15 14.64-31.65 2.73-7.252 14.753-40.477 14.753-40.755 0-.195-5.273-18.127-6.165-21l-.3-.922-.255.57c-.48 1.073-5.4 14.505-10.86 29.64-7.5 20.79-11.828 32.4-14.13 37.95l-.728 1.792.09-2.002c.075-1.095.195-3.713.285-5.798.645-13.245 2.475-34.155 5.273-60.51 2.812-26.52 5.31-43.814 7.822-54.202.75-3.104 1.95-7.192 2.205-7.53.18-.202 1.748 3.18 3.03 6.533 2.67 7.005 4.77 13.62 11.363 35.805 8.122 27.382 12.202 39.487 17.437 51.757 4.575 10.77 8.28 17.287 12.9 22.77 3.24 3.84 6.3 6.262 9.705 7.717a15.219 15.219 0 0 0 12.195.128c10.388-4.178 19.238-19.148 29.783-50.392 2.835-8.415 5.182-15.915 10.125-32.4 6.832-22.838 9.847-31.883 12.75-38.46a52.449 52.449 0 0 1 1.582-3.352l.428-.735.285.825c2.475 6.87 4.972 19.77 7.282 37.65 2.498 19.14 6.075 55.154 7.41 74.174.428 6.135.9 14.82.878 16.44v1.162l-.555-1.267c-1.763-4.005-5.843-14.993-14.25-38.265-6.518-18.03-11.13-30.57-11.363-30.847-.082-.098-.217.105-.322.427-4.305 14.25-6.27 20.827-6.27 21.075 0 .3 7.32 20.67 12.645 35.175 4.545 12.352 8.64 22.807 10.62 27.134 2.617 5.73 4.537 9.045 6.66 11.573 1.23 1.455 1.815 1.98 3.097 2.737 2.82 1.598 5.28 1.2 7.275.053 6.3-3.713 7.388-14.273 4.95-47.925-1.23-16.717-3.922-44.55-6.255-64.514-3.705-31.71-7.627-49.837-12.45-57.532-1.905-3.06-4.507-5.25-7.035-5.948a10.8 10.8 0 0 0-5.01.128c-6.57 2.235-11.61 11.595-19.177 35.625-1.02 3.254-1.965 6.27-2.07 6.69-.12.442-.285.802-.338.802-.075 0-.547-.975-1.087-2.175-9.008-20.145-16.673-32.722-23.813-39.067-2.085-1.853-5.467-3.9-7.462-4.53-1.838-.57-5.543-.735-7.215-.3V.232ZM92 16.357c5.445 2.85 14.385 18.39 24.915 43.334l3.3 7.8-2.588 8.243c-4.792 15.345-7.875 24.202-11.505 32.864-5.04 12.038-9.87 19.928-13.59 22.185a5.464 5.464 0 0 1-4.612.315c-5.985-2.512-13.485-16.485-21.608-40.312a577.31 577.31 0 0 1-6.037-18.825l-1.013-3.315 2.595-6.277c10.08-24.292 19.058-40.627 24.728-45.06 2.047-1.597 3.63-1.882 5.415-.952Z"/></svg>