<svg xmlns="http://www.w3.org/2000/svg" width="20" height="20" fill="none"><path fill="#494949" d="M10 0C4.476 0 0 4.589 0 10.254a10.42 10.42 0 0 0 1.885 5.997 10.011 10.011 0 0 0 4.952 3.731c.5.09.688-.218.688-.488 0-.243-.013-1.05-.013-1.909C5 18.06 4.35 16.958 4.15 16.38c-.113-.295-.6-1.204-1.025-1.449-.35-.191-.85-.666-.013-.678.788-.014 1.35.743 1.538 1.05.9 1.551 2.337 1.115 2.912.847.088-.667.35-1.115.638-1.371-2.225-.257-4.55-1.142-4.55-5.064 0-1.115.387-2.037 1.025-2.755-.1-.256-.45-1.307.1-2.717 0 0 .837-.27 2.75 1.05a9.085 9.085 0 0 1 2.5-.346c.85 0 1.7.115 2.5.346 1.914-1.333 2.75-1.05 2.75-1.05.55 1.41.2 2.46.1 2.717.638.718 1.026 1.627 1.026 2.755 0 3.936-2.337 4.807-4.562 5.064.362.32.675.935.675 1.897 0 1.37-.013 2.473-.013 2.82 0 .268.188.588.688.485a10.044 10.044 0 0 0 4.93-3.74A10.452 10.452 0 0 0 20 10.253C20 4.589 15.525 0 10 0"/></svg>